# xmcd
#
# Track frame offsets: 
#        150
#        19085
#        28755
#        42177
#        52150
#        69130
#        81405
#        97270
#        112667
#        123700
#        134485
#        155705
#        167102
#        184210
#        196895
#        215195
#        237402
#        253292
#        265380
#        286365
#
# Disc length: 3988 seconds
#
# Revision: 2
# Processed by: cddbd v1.5PL3 Copyright (c) Steve Scherf et al.
# Submitted via: ExactAudioCopy v0.95a5
#
DISCID=390f9214
DTITLE=Various Artist - Tresors Blues CD4
DYEAR=1990
DGENRE=Blues
TTITLE0=John Lee Hooker_Shake it baby
TTITLE1=Eric Clapton_Tribute to Elmore
TTITLE2=Buddy Guy_This is the end
TTITLE3=John Mayall_I'm your witchdoctor
TTITLE4=Robert Cray_Who's been talking
TTITLE5=Otis Rush_Double Trouble
TTITLE6=Screamin' Jay hawkins_I put a spell on you
TTITLE7=Albert King_Born under a bad sign
TTITLE8=Eric Clapton_Snake drive
TTITLE9=Magic Sam_Out of bad luck
TTITLE10=Calvin Leavy_Cummins prison farm
TTITLE11=Sam Myers_You don't have to go
TTITLE12=Albert Lee_Crosstown link
TTITLE13=E. Clapton and Jimmy Page_Freight loader
TTITLE14=Jimmy Dawkings_I wonder why you do the things that you do
TTITLE15=The Aces_That's all right
TTITLE16=Billy Boy Arnold_Every day I have the blues
TTITLE17=Hubert Sumlin_Blues for Elmore James
TTITLE18=Jimmy Dawkings_Let Me Have My Way
TTITLE19=T-Bone Walker_Stormy monday blues
EXTD=YEAR: 1990 ID3G: 0
EXTT0=
EXTT1=
EXTT2=
EXTT3=
EXTT4=
EXTT5=
EXTT6=
EXTT7=
EXTT8=
EXTT9=
EXTT10=
EXTT11=
EXTT12=
EXTT13=
EXTT14=
EXTT15=
EXTT16=
EXTT17=
EXTT18=
EXTT19=
PLAYORDER=
